<svg width="208" height="232" viewBox="0 0 208 232" fill="none" xmlns="http://www.w3.org/2000/svg">
<path d="M54.369 217.409L53.867 223.422L51.749 227.338L45.078 225.123L44.135 220.662L44.52 213.731L54.369 217.409Z" fill="#302624"/>
<path d="M27.157 227.623C29.454 226.545 36.577 224.475 41.863 220.677C42.446 220.258 43.147 220.103 43.795 220.224C43.799 220.225 44.1531 220.292 44.1561 220.292C44.1561 220.292 44.3641 223.513 47.7601 224.653C50.0441 225.42 53.8671 223.421 53.8671 223.421L53.4121 231.948H25.955C25.432 231.659 25.335 231.064 25.335 231.064C25.335 231.064 24.228 228.996 27.157 227.623Z" fill="#302624"/>
<path d="M65.41 157.219L59.053 220.63C59.053 220.63 48.678 222.265 41.678 219.548L46.074 155.525L65.41 157.219Z" fill="#302624"/>
<path d="M46.074 155.525C45.606 160.865 49.555 165.572 54.895 166.04C60.235 166.508 64.942 162.559 65.41 157.219C65.878 151.879 61.929 147.172 56.589 146.704C51.249 146.236 46.542 150.185 46.074 155.525Z" fill="#302624"/>
<path d="M155.707 51.7955H99.02L95.8831 136.185C96.6161 146.184 88.701 154.701 78.675 154.701H135.362C145.388 154.701 153.303 146.185 152.57 136.185L155.707 51.7955Z" fill="#A3857A"/>
<path d="M157.281 51.7955H155.708L152.571 136.185C153.304 146.184 145.389 154.701 135.363 154.701H65.55V156.27H135.363C140.577 156.27 145.603 154.08 149.152 150.261C152.7 146.442 154.516 141.269 154.135 136.07L157.281 51.7955Z" fill="#A3857A"/>
<path d="M134.078 154.7H65.5491V156.269H134.078V154.7Z" fill="#A3857A"/>
<path d="M149.151 150.26C147.747 151.771 146.106 153.014 144.32 153.98L151.615 231.949H153.972L149.211 150.188C149.19 150.211 149.172 150.237 149.151 150.26Z" fill="#A3857A"/>
<path d="M120.06 156.269L112.066 231.949H114.423L125.119 156.269H120.06Z" fill="#A3857A"/>
<path d="M71.1871 156.269L63.192 231.949H65.5491L76.2451 156.269H71.1871Z" fill="#A3857A"/>
<path d="M53.348 146.902C48.154 148.225 45.016 153.508 46.339 158.702C47.662 163.896 52.945 167.034 58.139 165.711C63.333 164.388 66.471 159.105 65.148 153.91C63.825 148.717 58.542 145.579 53.348 146.902Z" fill="#302624"/>
<path d="M98.773 129.8C92.643 131.361 88.9399 137.597 90.5009 143.726C92.0619 149.856 98.298 153.559 104.427 151.998C110.557 150.437 114.26 144.202 112.699 138.072C111.138 131.942 104.903 128.239 98.773 129.8Z" fill="#302624"/>
<path d="M53.3479 146.902L98.7729 129.8L104.428 151.999L58.1389 165.711L53.3479 146.902Z" fill="#302624"/>
<path d="M97.466 129.448H108.959H109.042C109.075 129.448 109.109 129.447 109.142 129.448H132.889C132.905 129.448 132.92 129.446 132.936 129.446C132.952 129.446 132.967 129.448 132.983 129.448H144.39V140.977H144.386C144.344 147.266 139.236 152.353 132.936 152.353H108.959V152.348C108.524 152.348 108.085 152.329 107.642 152.277C101.828 151.604 97.546 146.686 97.513 140.977H97.465V129.448H97.466Z" fill="#302624"/>
<path d="M97.466 129.448H108.959H109.042C109.075 129.448 109.109 129.447 109.142 129.448H132.889C132.905 129.448 132.92 129.446 132.936 129.446C132.952 129.446 132.967 129.448 132.983 129.448H144.39V140.977H144.386C144.344 147.266 139.236 152.353 132.936 152.353H108.959V152.348C108.524 152.348 108.085 152.329 107.642 152.277C101.828 151.604 97.546 146.686 97.513 140.977H97.465V129.448H97.466Z" fill="#302624"/>
<path d="M96.2771 217.409L97.3191 223.422L96.2071 227.338L88.9671 225.123L86.8791 220.662L85.4841 213.731L96.2771 217.409Z" fill="#302624"/>
<path d="M70.6881 227.623C72.7081 226.545 80.3001 224.475 84.6101 220.677C85.0861 220.258 85.7471 220.103 86.4261 220.224C86.4301 220.225 86.801 220.292 86.804 220.292C86.804 220.292 87.84 223.513 91.528 224.653C94.01 225.42 97.3181 223.421 97.3181 223.421L99.0531 231.948H70.5961C69.9991 231.659 69.749 231.064 69.749 231.064C69.749 231.064 68.1121 228.996 70.6881 227.623Z" fill="#302624"/>
<path d="M91.679 154.944L97.857 218.612C97.857 218.612 90.093 222.153 82.652 221.141L72.48 157.8L91.679 154.944Z" fill="#302624"/>
<path d="M72.4801 157.8C73.2691 163.102 78.2061 166.76 83.5081 165.971C88.8101 165.182 92.4681 160.245 91.6791 154.943C90.8901 149.641 85.9531 145.983 80.6511 146.772C75.3491 147.561 71.6911 152.498 72.4801 157.8Z" fill="#302624"/>
<path d="M79.684 146.902C74.49 148.225 71.3521 153.508 72.6751 158.702C73.9981 163.896 79.2811 167.034 84.4751 165.711C89.6691 164.388 92.8071 159.105 91.4841 153.91C90.1611 148.717 84.878 145.579 79.684 146.902Z" fill="#302624"/>
<path d="M130.109 129.8C123.979 131.361 120.276 137.597 121.837 143.726C123.398 149.856 129.634 153.559 135.763 151.998C141.893 150.437 145.596 144.202 144.035 138.072C142.474 131.942 136.239 128.239 130.109 129.8Z" fill="#302624"/>
<path d="M79.6841 146.902L130.109 129.8L135.764 151.999L84.4751 165.711L79.6841 146.902Z" fill="#302624"/>
<path d="M93.6592 82.2839C97.8672 81.2381 100.431 76.9789 99.3849 72.7708C98.3391 68.5628 94.0799 65.9993 89.8718 67.0451C85.6638 68.091 83.1003 72.3501 84.1461 76.5582C85.1919 80.7662 89.4511 83.3297 93.6592 82.2839Z" fill="#FBC0A4"/>
<path d="M143.812 84.2966C148.07 83.4749 150.855 79.3575 150.033 75.1C149.212 70.8424 145.094 68.0571 140.837 68.8788C136.579 69.7005 133.794 73.818 134.615 78.0755C135.437 82.333 139.555 85.1183 143.812 84.2966Z" fill="#FBC0A4"/>
<path d="M91.7531 83.4986C96.6331 83.4986 100.604 79.5276 100.604 74.6476C100.604 69.7676 96.6331 65.7966 91.7531 65.7966C86.8721 65.7966 82.9011 69.7676 82.9011 74.6476C82.9011 79.5276 86.8731 83.4986 91.7531 83.4986Z" fill="#3E3533"/>
<path d="M95.103 113.078L95.1611 112.14C95.3281 109.436 97.553 89.6456 100.327 76.8236L100.527 75.8956L83.506 71.4296L83.248 72.2066C81.72 79.8116 79.8561 110.904 79.8541 112.077L79.8521 113.079L95.103 113.078Z" fill="#3E3533"/>
<path d="M87.5131 119.734C90.9931 119.734 94.0371 117.379 94.9151 114.006C95.9781 109.921 93.5191 105.733 89.4361 104.669C88.8021 104.504 88.1531 104.421 87.5031 104.421C84.0231 104.421 80.9781 106.775 80.0991 110.149C79.0351 114.234 81.4931 118.421 85.5781 119.485C86.2121 119.65 86.8641 119.734 87.5131 119.734Z" fill="#3E3533"/>
<path d="M91.746 83.4996C94.876 83.4996 97.71 81.9026 99.327 79.2286C101.852 75.0506 100.509 69.5996 96.333 67.0756C94.95 66.2386 93.369 65.7976 91.761 65.7976C88.631 65.7976 85.797 67.3946 84.18 70.0686C82.956 72.0916 82.594 74.4706 83.16 76.7656C83.725 79.0616 85.151 80.9986 87.175 82.2216C88.556 83.0576 90.137 83.4996 91.746 83.4996Z" fill="#3E3533"/>
<path d="M145.69 84.7605C150.218 82.9191 152.397 77.7553 150.555 73.2268C148.714 68.6983 143.55 66.52 139.022 68.3614C134.493 70.2028 132.315 75.3666 134.156 79.8951C135.998 84.4236 141.161 86.6019 145.69 84.7605Z" fill="#F8E8D8"/>
<path d="M144.39 129.448L144.257 101.65L141.777 81.5726L149.603 71.9996L149.472 71.5056C148.59 68.1826 125.474 57.9326 117.541 56.6796C117.171 56.6206 116.745 56.5906 116.274 56.5906C109.41 56.5906 91.2 63.0946 85.664 68.2316L84.84 69.1166L91.735 74.3956C92.131 104.423 89.229 133.552 89.229 133.552C89.229 133.552 143.877 129.643 144.39 129.448Z" fill="#3E3533"/>
<path d="M107.536 58.2245C107.536 58.2245 103.623 58.0565 102.912 58.4945C102.201 58.9335 100.421 64.0725 100.063 64.8835C99.705 65.6945 104.819 70.4775 104.819 70.4775C104.819 70.4775 100.599 77.4055 100.775 77.9635C100.952 78.5215 108.435 108.806 108.435 108.806C108.435 108.806 126.578 81.7445 126.948 80.4005C127.318 79.0555 125.211 72.0945 125.211 72.0945C125.211 72.0945 130.583 68.1355 130.91 67.2715C131.237 66.4075 131.923 60.8885 130.91 60.1885C130.287 59.7575 126.675 58.9445 126.675 58.9445L107.536 58.2245Z" fill="#302624"/>
<path d="M124.785 61.2726L108.363 106.352L106.414 61.2726H124.785Z" fill="white"/>
<path d="M117.201 69.2626L113.635 72.0906L114.275 90.1236L108.363 106.352L107.706 91.1496L110.189 71.8156L108.384 68.0856L112.502 65.7966L117.201 69.2626Z" fill="#70D4FF"/>
<path d="M122.812 59.8876L124.785 40.7416L110.189 48.1736L110.329 48.8716L110.736 58.5036C110.852 61.2576 110.739 64.0396 113.635 64.5046C117.099 65.0606 122.485 63.0596 122.812 59.8876Z" fill="#FBC0A4"/>
<path d="M110.581 54.8486L110.328 48.8716L110.188 48.1736L124.784 40.7416L123.853 49.7756C121.247 53.6906 116.097 54.8656 110.581 54.8486Z" fill="#F69D7D"/>
<path d="M100.464 32.8186C100.529 28.2556 100.253 21.6956 102.077 16.9216C102.079 16.9186 102.079 16.9146 102.08 16.9106C102.082 16.9066 102.084 16.9036 102.085 16.8996C102.89 14.8016 104.108 13.0576 105.936 11.9766C107.939 10.5356 110.725 9.60457 114.907 9.27057C123.694 8.57057 129.406 11.8626 133.228 17.5826C136.077 21.8466 134.862 27.4396 134.281 29.4576C135.905 29.6046 138.165 30.5846 137.649 35.0346C136.86 41.8336 131.938 41.9686 130.485 42.2626C130.485 42.2626 127.776 54.3696 112.84 53.2106C97.9061 52.0526 100.354 40.4876 100.464 32.8186Z" fill="#FBC0A4"/>
<path d="M110.744 38.0445C111.102 37.8745 111.547 38.0335 111.944 38.2065C112.328 38.4065 112.732 38.6525 112.825 39.0375C112.855 39.2265 112.732 39.4345 112.448 39.5535C112.17 39.6735 111.738 39.6775 111.334 39.4845C110.93 39.2915 110.662 38.9535 110.58 38.6625C110.494 38.3675 110.578 38.1405 110.744 38.0445Z" fill="#F69D7D"/>
<path d="M120.677 32.4135C120.726 33.4885 119.894 34.3995 118.819 34.4485C117.744 34.4975 116.832 33.6655 116.784 32.5905C116.735 31.5155 117.567 30.6035 118.642 30.5545C119.717 30.5055 120.628 31.3375 120.677 32.4135Z" fill="#403433"/>
<path d="M110.31 32.4135C110.359 33.4885 109.527 34.3995 108.452 34.4485C107.377 34.4975 106.465 33.6655 106.417 32.5905C106.368 31.5155 107.2 30.6035 108.275 30.5545C109.35 30.5055 110.261 31.3375 110.31 32.4135Z" fill="#403433"/>
<path d="M100.792 38.9546C100.7 40.9846 102.27 42.7056 104.3 42.7976C106.33 42.8896 108.051 41.3186 108.143 39.2886C108.236 37.2586 106.665 35.5376 104.634 35.4456C102.606 35.3526 100.885 36.9236 100.792 38.9546Z" fill="#F9B092"/>
<path d="M119.454 39.4805C119.362 41.5105 120.932 43.2315 122.963 43.3235C124.993 43.4155 126.714 41.8445 126.806 39.8145C126.899 37.7845 125.327 36.0636 123.297 35.9716C121.267 35.8796 119.547 37.4505 119.454 39.4805Z" fill="#F9B092"/>
<path d="M135.705 32.5706C136.225 34.3696 135.487 36.2666 134.762 37.9936C134.546 38.5066 134.308 39.0486 133.849 39.3626C133.389 39.6766 132.639 39.6286 132.398 39.1276C132.165 38.6426 132.51 38.0956 132.779 37.6306C133.048 37.1646 133.201 36.4656 132.748 36.1736C132.537 36.0376 132.261 36.0496 132.04 35.9326C131.558 35.6776 131.561 34.9906 131.686 34.4596C131.858 33.7256 132.131 33.0146 132.496 32.3546C132.854 31.7066 133.419 31.0446 134.159 31.0566C134.932 31.0676 135.49 31.8266 135.705 32.5706Z" fill="#F9B092"/>
<path d="M110.527 42.3746C110.722 42.0356 112.217 42.5906 113.848 42.0526C115.489 41.5486 116.388 40.2285 116.743 40.3925C116.913 40.4665 116.921 40.9536 116.553 41.6096C116.197 42.2566 115.409 43.0406 114.277 43.4026C113.145 43.7626 112.048 43.5786 111.384 43.2576C110.706 42.9346 110.431 42.5336 110.527 42.3746Z" fill="#F69D7D"/>
<path d="M123.13 56.8015C123.13 56.8015 115.7 65.0515 113.635 64.5045C111.57 63.9575 110.658 56.6625 110.658 56.6625C110.658 56.6625 106.141 57.6365 105.631 58.5245C105.121 59.4125 104.851 68.0805 106.36 69.6665C107.869 71.2525 112.825 66.7975 112.825 66.7975C112.825 66.7975 117.077 72.3095 119.45 71.7805C121.823 71.2515 127.25 60.7455 127.602 59.4975C127.954 58.2495 123.13 56.8015 123.13 56.8015Z" fill="white"/>
<path d="M121.839 28.1035C120.508 29.2035 114.603 28.2105 115.274 26.2635C115.946 24.3175 124.117 26.2215 121.839 28.1035Z" fill="#403433"/>
<path d="M111.017 27.1396C110.052 28.5716 104.108 29.2936 104.2 27.2356C104.292 25.1786 112.668 24.6886 111.017 27.1396Z" fill="#403433"/>
<path d="M95.5341 8.63154C98.3201 0.657543 107.332 -2.19946 114.698 1.78654C122.766 6.15254 133.421 1.70355 133.43 1.69555C132.977 2.83755 131.444 4.73154 131.108 5.35154C137.049 6.93054 137.725 10.3415 137.725 10.3415C144.386 10.1425 138.42 15.2146 138.42 15.2146C141.601 18.2566 135.191 29.6345 135.191 29.6345C130.865 28.5145 129.608 36.5085 129.608 36.5085L127.62 35.9685V31.5645C123.915 29.0705 125.618 21.9295 125.62 21.9255C125.38 22.3585 123.174 22.1255 122.815 22.0865C120.771 21.8665 119.4 19.9536 117.417 19.6156C115.114 19.2236 112.94 20.8405 110.817 21.4635C108.381 22.1785 105.683 22.3615 103.196 21.7975C97.2581 20.4515 93.4731 14.5295 95.5341 8.63154Z" fill="#403433"/>
<path d="M114.257 120.16C112.42 120.667 111.341 122.568 111.849 124.405C112.356 126.242 114.257 127.321 116.094 126.813C117.931 126.306 119.01 124.405 118.502 122.568C117.995 120.731 116.094 119.653 114.257 120.16Z" fill="#FBC0A4"/>
<path d="M114.257 120.16C114.281 120.317 112.401 119.543 112.265 119.455C111.617 119.033 111.1 118.406 110.406 118.092C109.208 117.551 107.951 117.139 106.662 116.876C105.535 116.646 104.438 116.419 103.611 117.414C103.349 117.729 103.16 118.101 102.879 118.4C102.391 118.919 101.676 119.161 100.975 119.287C100.274 119.412 99.555 119.44 98.866 119.622C97.611 119.953 96.52 120.792 95.772 121.853C95.025 122.914 94.6071 124.185 94.4511 125.473C94.3651 126.18 94.7541 126.612 95.3931 126.824C97.3081 127.46 99.293 127.862 101.296 128.096C103.026 128.298 104.86 128.08 106.604 127.954C109.509 127.745 112.522 128.08 112.522 128.08C112.522 128.08 114.257 120.163 114.257 120.16Z" fill="#FBC0A4"/>
<path d="M141.917 119.222C142.546 119.862 143.278 120.383 144.095 120.772C145.943 121.649 148.021 121.754 149.947 121.069C151.874 120.383 153.417 118.988 154.293 117.141C155.667 114.251 155.083 110.776 152.842 108.493C152.213 107.853 151.481 107.331 150.664 106.943C148.816 106.066 146.738 105.961 144.812 106.646C142.885 107.332 141.341 108.726 140.465 110.573C139.092 113.464 139.676 116.939 141.917 119.222Z" fill="#3E3533"/>
<path d="M115.938 127.576L112.521 128.078L111.798 118.57L115.22 118.605L115.938 127.576Z" fill="white"/>
<path d="M115.643 128.702C121.542 128.494 148.153 121.51 149.361 121.249L150.905 120.648L146.303 106.201L145.332 106.481C145.149 106.533 140.784 107.801 133.585 111.029C131.762 111.846 113.497 117.154 113.497 117.154L114.725 128.765L115.643 128.702Z" fill="#3E3533"/>
<path d="M139.374 84.9625C140.357 85.2945 141.385 85.4495 142.431 85.4225C144.794 85.3635 146.993 84.3875 148.622 82.6745C150.251 80.9605 151.116 78.7155 151.055 76.3525C150.963 72.6535 148.546 69.3725 145.043 68.1885C144.06 67.8565 143.032 67.7015 141.986 67.7275C137.108 67.8505 133.238 71.9185 133.36 76.7975C133.454 80.4975 135.87 83.7785 139.374 84.9625Z" fill="#3E3533"/>
<path d="M154.957 115.047L155.045 113.693C155.013 112.52 154.222 84.8495 150.65 73.9215L150.347 72.9945L133.468 78.0435L133.692 78.9655C136.786 91.7015 139.508 111.439 139.744 114.141L139.825 115.078L154.957 115.047Z" fill="#3E3533"/>
<path d="M144.935 121.138C147.571 122.029 150.485 121.421 152.542 119.551C155.666 116.711 155.896 111.861 153.057 108.738C152.183 107.777 151.075 107.05 149.851 106.637C147.215 105.746 144.301 106.354 142.244 108.225C140.73 109.601 139.844 111.484 139.747 113.526C139.65 115.568 140.354 117.526 141.73 119.038C142.603 119.998 143.712 120.725 144.935 121.138Z" fill="#3E3533"/>
<path d="M54.4801 119.711C52.6651 120.292 51.665 122.235 52.246 124.051C52.827 125.866 54.7701 126.866 56.5861 126.285C58.4011 125.703 59.4011 123.761 58.8201 121.945C58.2391 120.13 56.2961 119.129 54.4801 119.711Z" fill="#FBC0A4"/>
<path d="M54.48 119.711C54.511 119.866 52.6001 119.17 52.4611 119.087C51.7961 118.691 51.254 118.086 50.548 117.801C49.329 117.309 48.0561 116.948 46.7581 116.737C45.6231 116.553 44.5181 116.371 43.7321 117.398C43.4831 117.724 43.309 118.103 43.04 118.412C42.573 118.95 41.8691 119.221 41.1741 119.375C40.4791 119.529 39.761 119.586 39.08 119.795C37.84 120.176 36.783 121.059 36.079 122.149C35.375 123.239 35.0101 124.526 34.9061 125.82C34.8491 126.53 35.255 126.946 35.902 127.132C37.841 127.69 39.8411 128.011 41.8521 128.163C43.5881 128.295 45.412 128.002 47.15 127.806C50.044 127.479 52.928 126.999 55.806 126.435C55.806 126.435 54.481 119.713 54.48 119.711Z" fill="#FBC0A4"/>
<path d="M82.0799 117.651C82.7339 118.265 83.487 118.756 84.319 119.112C86.201 119.913 88.281 119.934 90.178 119.171C92.075 118.407 93.561 116.951 94.362 115.07C95.617 112.127 94.893 108.678 92.561 106.488C91.907 105.874 91.1539 105.382 90.3219 105.027C88.4399 104.226 86.36 104.205 84.463 104.968C82.566 105.732 81.08 107.187 80.279 109.069C79.024 112.013 79.7479 115.461 82.0799 117.651Z" fill="#3E3533"/>
<path d="M56.461 127.052L53.067 127.693L51.959 118.222L55.38 118.118L56.461 127.052Z" fill="white"/>
<path d="M56.212 128.189C62.098 127.742 88.403 119.684 89.6 119.374L91.119 118.711L85.935 104.463L84.976 104.782C84.795 104.841 80.486 106.285 73.423 109.803C71.635 110.693 53.6 116.738 53.6 116.738L55.298 128.29L56.212 128.189Z" fill="#3E3533"/>
<path d="M108.331 116.832H32.745C30.732 116.832 29.1 115.2 29.1 113.187V65.1946C29.1 63.1816 30.732 61.5496 32.745 61.5496H108.331C110.344 61.5496 111.976 63.1816 111.976 65.1946V113.187C111.977 115.2 110.345 116.832 108.331 116.832Z" fill="#F8E8D8"/>
<path d="M89.2299 125.666H47.3779V127.939H89.2299V125.666Z" fill="#F8E8D8"/>
<path d="M100.471 125.666H89.23V127.939H100.471V125.666Z" fill="white"/>
<path d="M72.3629 127.939L77.6319 97.1786H64.1259L58.8569 127.939H72.3629Z" fill="#F8E8D8"/>
<path d="M12.61 142.788L5.56494 231.949H7.92096L22.9959 142.788H12.61Z" fill="#52342D"/>
<path d="M151.324 131.291H4.27405V145.702H151.324V131.291Z" fill="#52342D"/>
<path d="M159.661 142.788L152.615 231.949H154.972L170.046 142.788H159.661Z" fill="#623A33"/>
<path d="M195.622 142.788L202.668 231.949H200.311L185.237 142.788H195.622Z" fill="#623A33"/>
<path d="M207.423 127.939H0V131.291H207.423V127.939Z" fill="white"/>
<path d="M151.325 145.702H203.15V131.291H151.325V145.702Z" fill="#623A33"/>
</svg>
